<?xml version="1.0" encoding="UTF-8"?>
<svg version="1.1" xmlns="http://www.w3.org/2000/svg" width="50" height="50">
<path d="M0 0 C16.5 0 33 0 50 0 C50 11.88 50 23.76 50 36 C33.5 36 17 36 0 36 C0 24.12 0 12.24 0 0 Z M2 2 C3.99221883 5.99440972 3.99221883 5.99440972 7.08203125 8.65625 C7.98598633 9.35427734 7.98598633 9.35427734 8.90820312 10.06640625 C9.53662109 10.53949219 10.16503906 11.01257812 10.8125 11.5 C12.0482625 12.44780531 13.28394104 13.3957201 14.51953125 14.34375 C15.41406006 15.01470703 15.41406006 15.01470703 16.32666016 15.69921875 C17.82277567 16.86223356 19.2369862 18.12886444 20.63671875 19.40625 C22.86101039 21.26913363 22.86101039 21.26913363 25.40722656 20.77685547 C28.16618067 19.95020839 29.65715014 19.00626702 31.84765625 17.1640625 C32.53537109 16.59429687 33.22308594 16.02453125 33.93164062 15.4375 C34.63482422 14.839375 35.33800781 14.24125 36.0625 13.625 C37.46964223 12.45002982 38.87718193 11.27553545 40.28515625 10.1015625 C40.90269775 9.57900879 41.52023926 9.05645508 42.15649414 8.51806641 C44 7 44 7 46.23217773 5.43115234 C46.81555908 4.95887207 47.39894043 4.4865918 48 4 C48 3.34 48 2.68 48 2 C32.82 2 17.64 2 2 2 Z M2 8 C2 16.58 2 25.16 2 34 C17.18 34 32.36 34 48 34 C48 25.42 48 16.84 48 8 C42.21626471 12.32865287 42.21626471 12.32865287 36.55078125 16.80859375 C36.01259766 17.24494141 35.47441406 17.68128906 34.91992188 18.13085938 C33.82781476 19.01861109 32.74470657 19.91752513 31.66992188 20.82617188 C29.29022366 22.72935633 27.63175897 23.96991624 24.5390625 24.1171875 C20.90731027 22.51921652 18.09884611 20.21397529 15.0625 17.6875 C13.86762435 16.71010984 12.67102624 15.73482137 11.47265625 14.76171875 C10.94937744 14.32819092 10.42609863 13.89466309 9.88696289 13.44799805 C7.35207681 11.50280341 4.65858358 9.77238905 2 8 Z " fill="#000000" transform="translate(0,7)"/>
</svg>
