<?xml version="1.0" encoding="UTF-8"?>
<svg version="1.1" xmlns="http://www.w3.org/2000/svg" width="94" height="94">
<path d="M0 0 C1.6875 2.3125 1.6875 2.3125 3 5 C4.10940141 6.20208558 5.23667453 7.38776753 6.375 8.5625 C16.1825491 19.8453372 15.90319871 32.77969999 16 47 C15.34 47 14.68 47 14 47 C13.69707031 47.64066406 13.39414063 48.28132813 13.08203125 48.94140625 C8.04714168 59.33651671 2.53078371 68.00811279 -8.27685547 73.06542969 C-11.35963654 74.12342556 -13.81545779 74.25859182 -17.0703125 74.265625 C-18.21371094 74.26820312 -19.35710938 74.27078125 -20.53515625 74.2734375 C-22.31212891 74.26183594 -22.31212891 74.26183594 -24.125 74.25 C-25.91357422 74.26160156 -25.91357422 74.26160156 -27.73828125 74.2734375 C-28.87910156 74.27085938 -30.01992188 74.26828125 -31.1953125 74.265625 C-32.23703613 74.26336914 -33.27875977 74.26111328 -34.35205078 74.25878906 C-37 74 -37 74 -40 72 C-40.8971875 71.814375 -40.8971875 71.814375 -41.8125 71.625 C-45.04558788 70.7012606 -47.33879036 69.02483342 -50 67 C-51.125 64.9375 -51.125 64.9375 -52 63 C-53.94055478 61.3626569 -55.73213843 60.13393079 -58 59 C-58.34274406 57.33524314 -58.67364302 55.66804677 -59 54 C-59.91581439 51.62183682 -60.95156801 49.32478398 -62 47 C-62.66 47 -63.32 47 -64 47 C-64.94137255 44.17588235 -65.11725382 42.47081968 -65.09765625 39.55078125 C-65.09443359 38.70322266 -65.09121094 37.85566406 -65.08789062 36.98242188 C-65.07951172 36.10134766 -65.07113281 35.22027344 -65.0625 34.3125 C-65.05798828 33.41982422 -65.05347656 32.52714844 -65.04882812 31.60742188 C-65.03704983 29.40488013 -65.02060164 27.20247401 -65 25 C-64.34 25 -63.68 25 -63 25 C-62.505 20.545 -62.505 20.545 -62 16 C-61.01 15.67 -60.02 15.34 -59 15 C-57.37492804 12.1668838 -57.37492804 12.1668838 -56 9 C-54.67697383 6.10588026 -53.45538442 4.06252291 -51 2 C-50.01 1.67 -49.02 1.34 -48 1 C-47.67 0.34 -47.34 -0.32 -47 -1 C-45 -1.5 -45 -1.5 -43 -2 C-42.67 -2.66 -42.34 -3.32 -42 -4 C-38.97144985 -4.48673127 -36.05599859 -4.77866338 -33 -5 C-32.34209473 -5.05043457 -31.68418945 -5.10086914 -31.00634766 -5.15283203 C-28.77567341 -5.32064606 -26.54443559 -5.47493979 -24.3125 -5.625 C-23.58804688 -5.6772876 -22.86359375 -5.7295752 -22.1171875 -5.78344727 C-13.55594167 -6.30870719 -7.22374439 -4.55353887 0 0 Z M-61 17 C-60 19 -60 19 -60 19 Z " fill="#383A44" transform="translate(71,13)"/>
<path d="M0 0 C5.54899563 0.75668122 5.54899563 0.75668122 7.89111328 2.02026367 C11.93600442 3.89941951 16.48898644 3.326796 20.875 3.3125 C21.85597656 3.32861328 22.83695313 3.34472656 23.84765625 3.36132812 C29.51001799 3.36514888 32.95311414 2.73435756 38 0 C40.875 0.3125 40.875 0.3125 43 1 C42.96519531 1.74765625 42.93039063 2.4953125 42.89453125 3.265625 C42.85392578 4.74289063 42.85392578 4.74289063 42.8125 6.25 C42.77769531 7.22453125 42.74289063 8.1990625 42.70703125 9.203125 C43.04794289 12.45769479 44.07425 13.44228553 46 16 C46.74536762 21.24680347 46.47853309 26.35504251 45 31.4375 C42.2246882 34.99336825 39.13376446 37.20169569 35 39 C31.5 39.3125 31.5 39.3125 29 39 C29.31839844 39.495 29.63679688 39.99 29.96484375 40.5 C31.38953722 43.94076913 31.42612838 47.32794466 31.5625 51 C31.7387819 55.14074922 31.9875504 58.9502016 33 63 C24.75 63 16.5 63 8 63 C8.99 62.505 8.99 62.505 10 62 C10.46751788 59.64400765 10.46751788 59.64400765 10.625 56.9375 C10.69976562 56.01839844 10.77453125 55.09929687 10.8515625 54.15234375 C10.90054688 53.44207031 10.94953125 52.73179688 11 52 C10.13375 52.0825 9.2675 52.165 8.375 52.25 C3.34331999 51.87728296 0.56537741 49.80840404 -2.7109375 46.0234375 C-7 40.48591549 -7 40.48591549 -7 38 C-3.39280371 38.30918825 -2.22689031 38.74789965 0.25 41.5 C3.96785804 44.87987095 7.12213457 44.88310126 12 45 C12.33 43.02 12.66 41.04 13 39 C11.7625 39.1546875 11.7625 39.1546875 10.5 39.3125 C5.70658099 38.88451616 2.61077619 37.1404985 -1 34 C-4.27863156 28.77468095 -4.99245153 23.05200832 -4 17 C-3.51144531 16.20464844 -3.02289062 15.40929687 -2.51953125 14.58984375 C-0.70122623 11.4907789 -0.50843901 9.25358989 -0.3125 5.6875 C-0.24675781 4.61886719 -0.18101563 3.55023437 -0.11328125 2.44921875 C-0.07589844 1.64097656 -0.03851562 0.83273438 0 0 Z " fill="#EAEBEC" transform="translate(26,24)"/>
<path d="M0 0 C0.66 1.32 1.32 2.64 2 4 C2.66 4 3.32 4 4 4 C3.45276317 7.37462715 2.9451 9.08235 1 12 C0.1632099 18.21615503 0.68912084 23.65987233 4 29 C7.9043824 32.2339329 11.96397188 33.50868018 17 34 C16.67 35.98 16.34 37.96 16 40 C8.45631068 40.92371706 8.45631068 40.92371706 4.94921875 38.69921875 C3.76813135 37.63952791 2.61771559 36.54418767 1.5078125 35.41015625 C-0.0585135 33.74880321 -0.0585135 33.74880321 -3 33 C-1.76056233 34.79898963 -0.50803104 36.58896323 0.75 38.375 C1.79414062 39.87160156 1.79414062 39.87160156 2.859375 41.3984375 C6.39261996 45.69249068 9.60385628 46.26416222 15 47 C15.29296875 53.0546875 15.29296875 53.0546875 15 55 C14.01 55.66 13.02 56.32 12 57 C10.515 56.505 10.515 56.505 9 56 C8.401875 55.896875 7.80375 55.79375 7.1875 55.6875 C3.33935225 54.47808213 -0.16214827 52.53606151 -2.125 48.9375 C-2.558125 47.9784375 -2.558125 47.9784375 -3 47 C-4.94055478 45.3626569 -6.73213843 44.13393079 -9 43 C-9.34274406 41.33524314 -9.67364302 39.66804677 -10 38 C-10.91581439 35.62183682 -11.95156801 33.32478398 -13 31 C-13.66 31 -14.32 31 -15 31 C-15.94137255 28.17588235 -16.11725382 26.47081968 -16.09765625 23.55078125 C-16.09443359 22.70322266 -16.09121094 21.85566406 -16.08789062 20.98242188 C-16.07951172 20.10134766 -16.07113281 19.22027344 -16.0625 18.3125 C-16.05798828 17.41982422 -16.05347656 16.52714844 -16.04882812 15.60742188 C-16.03704983 13.40488013 -16.02060164 11.20247401 -16 9 C-15.34 9.66 -14.68 10.32 -14 11 C-10.47618313 8.45395403 -10.47618313 8.45395403 -8 5 C-6.40625 3.96484375 -6.40625 3.96484375 -4.5 2.9375 C-2.0882696 1.6858579 -2.0882696 1.6858579 0 0 Z " fill="#242120" transform="translate(22,29)"/>
<path d="M0 0 C1.6875 2.3125 1.6875 2.3125 3 5 C4.14260467 6.33349988 5.31226994 7.64402999 6.5 8.9375 C13 16.20705603 13 16.20705603 13 21 C10 20 10 20 8.640625 17.70703125 C7.95226562 16.27423828 7.95226562 16.27423828 7.25 14.8125 C2.56069853 5.92811267 -3.84077892 1.8508618 -13 -2 C-19.95489466 -4.13575505 -26.88620275 -3.98767009 -33.4375 -0.75 C-39.18600406 2.70731458 -43.61309545 7.26366229 -48.1953125 12.09375 C-50.5231755 14.54646105 -52.96479645 16.76798934 -55.5625 18.9375 C-58.3985552 21.34313518 -60.35382607 23.60476627 -62 27 C-63.26026798 24.47946405 -62.91874445 23.1457902 -62.5625 20.375 C-62.46066406 19.55773437 -62.35882813 18.74046875 -62.25390625 17.8984375 C-62.17011719 17.27195312 -62.08632813 16.64546875 -62 16 C-61.01 15.67 -60.02 15.34 -59 15 C-57.37492804 12.1668838 -57.37492804 12.1668838 -56 9 C-54.67697383 6.10588026 -53.45538442 4.06252291 -51 2 C-50.01 1.67 -49.02 1.34 -48 1 C-47.67 0.34 -47.34 -0.32 -47 -1 C-45 -1.5 -45 -1.5 -43 -2 C-42.67 -2.66 -42.34 -3.32 -42 -4 C-38.97144985 -4.48673127 -36.05599859 -4.77866338 -33 -5 C-32.34209473 -5.05043457 -31.68418945 -5.10086914 -31.00634766 -5.15283203 C-28.77567341 -5.32064606 -26.54443559 -5.47493979 -24.3125 -5.625 C-23.58804688 -5.6772876 -22.86359375 -5.7295752 -22.1171875 -5.78344727 C-13.55594167 -6.30870719 -7.22374439 -4.55353887 0 0 Z M-61 17 C-60 19 -60 19 -60 19 Z " fill="#9196A7" transform="translate(71,13)"/>
<path d="M0 0 C3.60719629 0.30918825 4.77310969 0.74789965 7.25 3.5 C10.96785804 6.87987095 14.12213457 6.88310126 19 7 C19 8.32 19 9.64 19 11 C17.35 11 15.7 11 14 11 C14 11.66 14 12.32 14 13 C15.65 13 17.3 13 19 13 C19 15.31 19 17.62 19 20 C18.67 20 18.34 20 18 20 C18 18.02 18 16.04 18 14 C16.700625 14.12375 16.700625 14.12375 15.375 14.25 C10.34331999 13.87728296 7.56537741 11.80840404 4.2890625 8.0234375 C0 2.48591549 0 2.48591549 0 0 Z " fill="#AEACAD" transform="translate(19,62)"/>
<path d="M0 0 C1.32 0.33 2.64 0.66 4 1 C4 6.61 4 12.22 4 18 C12.33297338 15.22234221 16.65745639 11.56630088 22.265625 5.0234375 C24 3 24 3 26 1 C25.35525511 8.09219377 20.08212445 13.426088 15 18 C11.50441035 20.4200236 8.06196147 21.77196514 4 23 C1.56227986 19.22005339 1.59826657 15.29388206 1.4375 10.9375 C1.24639334 5.39012663 1.24639334 5.39012663 0 0 Z " fill="#1E1613" transform="translate(55,64)"/>
<path d="M0 0 C0.90105469 0.00902344 1.80210938 0.01804687 2.73046875 0.02734375 C3.41753906 0.03894531 4.10460937 0.05054688 4.8125 0.0625 C2.23983794 1.77760804 -0.2834918 3.07042754 -3.07543945 4.37231445 C-9.90783471 7.5927761 -16.66844994 11.02439989 -20.1875 18.0625 C-21.1775 18.0625 -22.1675 18.0625 -23.1875 18.0625 C-22.07494102 13.24141107 -21.13380932 10.1717134 -17.1875 7.0625 C-16.1975 6.7325 -15.2075 6.4025 -14.1875 6.0625 C-13.8575 5.4025 -13.5275 4.7425 -13.1875 4.0625 C-11.85416667 3.72916667 -10.52083333 3.39583333 -9.1875 3.0625 C-8.8575 2.4025 -8.5275 1.7425 -8.1875 1.0625 C-5.17259443 0.05753148 -3.14568308 -0.04085303 0 0 Z " fill="#D0D1D2" transform="translate(37.1875,7.9375)"/>
<path d="M0 0 C0.33 0 0.66 0 1 0 C1.58569171 13.4058325 1.58569171 13.4058325 -2 18 C-5.67639446 21.0433729 -8.70122601 22.88403804 -13.5 23.3125 C-14.325 23.209375 -15.15 23.10625 -16 23 C-16 23.66 -16 24.32 -16 25 C-16.66 25 -17.32 25 -18 25 C-18 24.01 -18 23.02 -18 22 C-16.948125 21.566875 -15.89625 21.13375 -14.8125 20.6875 C-8.78928029 18.08352219 -4.81223564 15.72515103 -1.875 9.6875 C-0.83096437 6.48081914 -0.39336288 3.34358451 0 0 Z " fill="#C6C8CA" transform="translate(71,40)"/>
<path d="M0 0 C0.99 0.33 1.98 0.66 3 1 C-8.53923676 12.71232532 -8.53923676 12.71232532 -13.5625 16.9375 C-16.3985552 19.34313518 -18.35382607 21.60476627 -20 25 C-20.33 24.34 -20.66 23.68 -21 23 C-18.62656881 17.82247471 -14.37589202 13.89141494 -10.5 9.8125 C-9.82324219 9.08869141 -9.14648438 8.36488281 -8.44921875 7.61914062 C-5.71878569 4.72445075 -3.32603935 2.21735957 0 0 Z " fill="#686C77" transform="translate(29,15)"/>
<path d="M0 0 C4.52671196 0.53255435 7.4200555 2.21559872 11 5 C11.67433093 6.32947359 12.34028673 7.66321258 13 9 C14.11063347 10.32205526 15.25910107 11.61297276 16.4375 12.875 C23 20.203125 23 20.203125 23 25 C20 24 20 24 18.640625 21.70703125 C18.18171875 20.75183594 17.7228125 19.79664062 17.25 18.8125 C13.33771554 11.34623436 8.71907084 7.38886037 1 4 C1.33 3.34 1.66 2.68 2 2 C1.34 1.34 0.68 0.68 0 0 Z " fill="#7D879C" transform="translate(61,9)"/>
<path d="M0 0 C0.99 0.33 1.98 0.66 3 1 C2.50628906 1.41507813 2.01257812 1.83015625 1.50390625 2.2578125 C-3.12624871 6.71095952 -4.47758439 9.8486287 -4.8125 16.3125 C-4.81894531 17.50488281 -4.82539063 18.69726562 -4.83203125 19.92578125 C-5 23 -5 23 -7 26 C-7.94137255 23.17588235 -8.11725382 21.47081968 -8.09765625 18.55078125 C-8.09443359 17.70322266 -8.09121094 16.85566406 -8.08789062 15.98242188 C-8.07951172 15.10134766 -8.07113281 14.22027344 -8.0625 13.3125 C-8.05798828 12.41982422 -8.05347656 11.52714844 -8.04882812 10.60742188 C-8.03704983 8.40488013 -8.02060164 6.20247401 -8 4 C-7.34 4.66 -6.68 5.32 -6 6 C-2.47618313 3.45395403 -2.47618313 3.45395403 0 0 Z " fill="#2F2D27" transform="translate(14,34)"/>
<path d="M0 0 C2.64662605 0.15123577 4.44278494 0.50001243 6.4453125 2.296875 C10 6.4 10 6.4 10 10 C10.66 10 11.32 10 12 10 C12.33 9.34 12.66 8.68 13 8 C13 8.99 13 9.98 13 11 C10.4375 11.5625 10.4375 11.5625 7 11 C4.25076109 8.2836861 2.01170292 5.29728821 0 2 C0 1.34 0 0.68 0 0 Z " fill="#EAE9E9" transform="translate(19,62)"/>
<path d="M0 0 C0.99 0 1.98 0 3 0 C3 0.66 3 1.32 3 2 C3.69867187 2.19335938 4.39734375 2.38671875 5.1171875 2.5859375 C6.02726562 2.84632812 6.93734375 3.10671875 7.875 3.375 C8.77992187 3.63023438 9.68484375 3.88546875 10.6171875 4.1484375 C13 5 13 5 15 7 C11.94253228 7.99367701 9.85026607 8.37324977 6.85546875 7.05859375 C1.21875 3.65625 1.21875 3.65625 0 0 Z " fill="#DAD8D9" transform="translate(24,55)"/>
<path d="M0 0 C0.90105469 0.00902344 1.80210938 0.01804687 2.73046875 0.02734375 C3.41753906 0.03894531 4.10460938 0.05054688 4.8125 0.0625 C1.6782518 2.1519988 -1.44859446 3.62695886 -4.875 5.1875 C-6.05449219 5.72632813 -7.23398437 6.26515625 -8.44921875 6.8203125 C-9.35285156 7.23023438 -10.25648437 7.64015625 -11.1875 8.0625 C-11.1875 5.0625 -11.1875 5.0625 -9.1875 3.0625 C-8.8575 2.4025 -8.5275 1.7425 -8.1875 1.0625 C-5.17259443 0.05753148 -3.14568308 -0.04085303 0 0 Z " fill="#C0C3C7" transform="translate(37.1875,7.9375)"/>
<path d="M0 0 C0.33 0.99 0.66 1.98 1 3 C-0.07421875 5.0078125 -0.07421875 5.0078125 -1.6875 7.125 C-2.20699219 7.82882813 -2.72648437 8.53265625 -3.26171875 9.2578125 C-5.18169057 11.18209887 -6.34723083 11.61855607 -9 12 C-8.60167969 11.55269531 -8.20335938 11.10539062 -7.79296875 10.64453125 C-4.82015875 7.25220061 -2.1717806 3.98159776 0 0 Z " fill="#342A25" transform="translate(80,65)"/>
<path d="M0 0 C0.66 0.33 1.32 0.66 2 1 C2 1.99 2 2.98 2 4 C-1 6 -1 6 -4 6 C-4.33 6.99 -4.66 7.98 -5 9 C-5.66 9 -6.32 9 -7 9 C-5.44499019 5.18315774 -2.96404505 2.80804268 0 0 Z " fill="#47494F" transform="translate(18,28)"/>
<path d="M0 0 C-1.45537568 0.83848804 -2.91440373 1.67063934 -4.375 2.5 C-5.59316406 3.19609375 -5.59316406 3.19609375 -6.8359375 3.90625 C-9 5 -9 5 -11 5 C-11 4.01 -11 3.02 -11 2 C-4.03571429 -1.34821429 -4.03571429 -1.34821429 0 0 Z " fill="#6B7388" transform="translate(43,10)"/>
<path d="M0 0 C2.78211944 0.37596209 4.5879284 0.67318459 6.8125 2.4375 C8 4 8 4 8 6 C2.33846154 4.52307692 2.33846154 4.52307692 0.625 1.875 C0.41875 1.25625 0.2125 0.6375 0 0 Z " fill="#BFC1C2" transform="translate(19,62)"/>
<path d="M0 0 C0.99 0.33 1.98 0.66 3 1 C-0.75 6.875 -0.75 6.875 -3 8 C-3.33 6.35 -3.66 4.7 -4 3 C-3.01 2.67 -2.02 2.34 -1 2 C-0.67 1.34 -0.34 0.68 0 0 Z M-3 4 C-2 6 -2 6 -2 6 Z " fill="#AAABAC" transform="translate(13,26)"/>
<path d="M0 0 C0.99773438 0.02320313 1.99546875 0.04640625 3.0234375 0.0703125 C4.52777344 0.09738281 4.52777344 0.09738281 6.0625 0.125 C6.83335938 0.14820313 7.60421875 0.17140625 8.3984375 0.1953125 C6.20770633 2.14988687 5.02670769 3.17554903 2.0390625 3.26953125 C1.25015625 3.14191406 0.46125 3.01429687 -0.3515625 2.8828125 C-1.15078125 2.76292969 -1.95 2.64304687 -2.7734375 2.51953125 C-3.37671875 2.41253906 -3.98 2.30554688 -4.6015625 2.1953125 C-2.6015625 0.1953125 -2.6015625 0.1953125 0 0 Z " fill="#434C66" transform="translate(45.6015625,8.8046875)"/>
<path d="M0 0 C2.97 0 5.94 0 9 0 C8.34 1.32 7.68 2.64 7 4 C4.625 3.6875 4.625 3.6875 2 3 C1.34 2.01 0.68 1.02 0 0 Z " fill="#343C56" transform="translate(49,10)"/>
<path d="M0 0 C0.33 0 0.66 0 1 0 C1 5.94 1 11.88 1 18 C0.67 18 0.34 18 0 18 C0 12.06 0 6.12 0 0 Z " fill="#090909" transform="translate(87,38)"/>
<path d="M0 0 C0.33 0 0.66 0 1 0 C1.25 6.625 1.25 6.625 -1 10 C-1.33 7.69 -1.66 5.38 -2 3 C-1.34 3 -0.68 3 0 3 C0 2.01 0 1.02 0 0 Z " fill="#CAC9CE" transform="translate(68,25)"/>
<path d="M0 0 C0.33 0 0.66 0 1 0 C1 2.97 1 5.94 1 9 C0.01 8.01 -0.98 7.02 -2 6 C-1.57894737 1.57894737 -1.57894737 1.57894737 0 0 Z " fill="#272625" transform="translate(85,42)"/>
<path d="M0 0 C0.99 0.33 1.98 0.66 3 1 C4.1875 4.0625 4.1875 4.0625 5 7 C2 6 2 6 0 3 C0 2.01 0 1.02 0 0 Z " fill="#6B7589" transform="translate(79,27)"/>
<path d="M0 0 C5.61 0 11.22 0 17 0 C17 0.33 17 0.66 17 1 C11.39 1 5.78 1 0 1 C0 0.67 0 0.34 0 0 Z " fill="#616D93" transform="translate(38,6)"/>
<path d="M0 0 C0.33 0.99 0.66 1.98 1 3 C0.34 3.99 -0.32 4.98 -1 6 C-0.67 4.02 -0.34 2.04 0 0 Z " fill="#A3A3A3" transform="translate(8,32)"/>
<path d="M0 0 C1.98 0 3.96 0 6 0 C6 0.33 6 0.66 6 1 C4.02 1 2.04 1 0 1 C0 0.67 0 0.34 0 0 Z " fill="#7F2A2A" transform="translate(44,88)"/>
<path d="M0 0 C1.98 0 3.96 0 6 0 C6 0.33 6 0.66 6 1 C4.02 1 2.04 1 0 1 C0 0.67 0 0.34 0 0 Z " fill="#DBDBBF" transform="translate(51,87)"/>
<path d="M0 0 C1.98 0 3.96 0 6 0 C6 0.33 6 0.66 6 1 C4.02 1 2.04 1 0 1 C0 0.67 0 0.34 0 0 Z " fill="#BFA9A9" transform="translate(37,87)"/>
<path d="M0 0 C0.99 0.495 0.99 0.495 2 1 C1.67 1.66 1.34 2.32 1 3 C0.67 2.01 0.34 1.02 0 0 Z " fill="#354A6A" transform="translate(80,23)"/>
<path d="" fill="#54547F" transform="translate(0,0)"/>
<path d="" fill="#383838" transform="translate(0,0)"/>
<path d="M0 0 C0.66 0 1.32 0 2 0 C1.67 0.66 1.34 1.32 1 2 C0.67 1.34 0.34 0.68 0 0 Z " fill="#8D8DAA" transform="translate(75,18)"/>
<path d="M0 0 C3 1 3 1 3 1 Z " fill="#BFBFD4" transform="translate(35,7)"/>
<path d="M0 0 C2 1 2 1 2 1 Z " fill="#2A0000" transform="translate(29,84)"/>
<path d="" fill="#000000" transform="translate(0,0)"/>
<path d="" fill="#000000" transform="translate(0,0)"/>
<path d="" fill="#000000" transform="translate(0,0)"/>
<path d="" fill="#191900" transform="translate(0,0)"/>
<path d="" fill="#3F0000" transform="translate(0,0)"/>
<path d="" fill="#000000" transform="translate(0,0)"/>
<path d="" fill="#2A2A2A" transform="translate(0,0)"/>
<path d="" fill="#5F5F5F" transform="translate(0,0)"/>
<path d="" fill="#552A00" transform="translate(0,0)"/>
<path d="" fill="#3F3F3F" transform="translate(0,0)"/>
<path d="" fill="#4A4A94" transform="translate(0,0)"/>
<path d="" fill="#3F3F3F" transform="translate(0,0)"/>
<path d="" fill="#D4D4D4" transform="translate(0,0)"/>
<path d="" fill="#FFFFFF" transform="translate(0,0)"/>
<path d="M0 0 C2 1 2 1 2 1 Z " fill="#D4D4FF" transform="translate(26,11)"/>
<path d="" fill="#3F3F00" transform="translate(0,0)"/>
<path d="" fill="#000000" transform="translate(0,0)"/>
<path d="" fill="#000000" transform="translate(0,0)"/>
<path d="" fill="#000000" transform="translate(0,0)"/>
<path d="" fill="#555555" transform="translate(0,0)"/>
<path d="" fill="#000000" transform="translate(0,0)"/>
<path d="" fill="#000000" transform="translate(0,0)"/>
<path d="" fill="#000000" transform="translate(0,0)"/>
<path d="" fill="#000000" transform="translate(0,0)"/>
<path d="" fill="#3F0000" transform="translate(0,0)"/>
<path d="" fill="#3F0000" transform="translate(0,0)"/>
<path d="" fill="#000000" transform="translate(0,0)"/>
<path d="" fill="#000000" transform="translate(0,0)"/>
<path d="" fill="#AAAAAA" transform="translate(0,0)"/>
<path d="" fill="#7F7FFF" transform="translate(0,0)"/>
<path d="" fill="#7F7F7F" transform="translate(0,0)"/>
<path d="" fill="#666699" transform="translate(0,0)"/>
<path d="" fill="#7F7F7F" transform="translate(0,0)"/>
<path d="" fill="#3F7F7F" transform="translate(0,0)"/>
<path d="" fill="#5555AA" transform="translate(0,0)"/>
<path d="" fill="#7F7F7F" transform="translate(0,0)"/>
<path d="" fill="#FFFFFF" transform="translate(0,0)"/>
</svg>
