<?xml version="1.0" encoding="UTF-8"?>
<svg version="1.1" xmlns="http://www.w3.org/2000/svg" width="198" height="198">
<path d="M0 0 C1.65357765 -0.0076664 1.65357765 -0.0076664 3.34056091 -0.01548767 C6.95186938 -0.02928455 10.56298487 -0.0284344 14.17431641 -0.02612305 C16.70578074 -0.03001531 19.23724442 -0.03435107 21.76870728 -0.03910828 C27.06246328 -0.04654915 32.35614968 -0.04643468 37.64990234 -0.04101562 C43.73648243 -0.03498001 49.8228311 -0.04728777 55.90937173 -0.06858569 C61.80455746 -0.08844209 67.69965371 -0.09136179 73.59486771 -0.08785057 C76.0849423 -0.0883612 78.57502081 -0.09355004 81.06507492 -0.10366249 C117.473704 -0.2333965 117.473704 -0.2333965 131.27587891 12.5871582 C141.25293886 23.42348648 143.55222951 36.34363903 143.54614258 50.53735352 C143.54950119 51.6633345 143.5528598 52.78931549 143.55632019 53.94941711 C143.56580926 57.66721708 143.56777236 61.38497189 143.56884766 65.1027832 C143.57206193 67.6934206 143.57542613 70.28405781 143.57893372 72.87469482 C143.58492007 78.30505878 143.58681704 83.73540489 143.58618164 89.16577148 C143.58558169 95.42209588 143.5961203 101.67833382 143.6119253 107.93463635 C143.62663415 113.97450702 143.63016812 120.01433116 143.62957191 126.05422211 C143.63074907 128.6137604 143.63515598 131.17329939 143.64290428 133.73282623 C143.65274606 137.32008448 143.64980935 140.90712266 143.64379883 144.49438477 C143.64941833 145.54304214 143.65503784 146.59169952 143.66082764 147.6721344 C143.60432916 161.00082332 140.41580737 173.98277181 131.33837891 184.2121582 C119.89493057 194.34411021 105.71266995 196.59324016 90.96948242 196.53344727 C89.88499817 196.5369519 88.80051392 196.54045654 87.6831665 196.54406738 C84.13197243 196.55280167 80.58098093 196.54706454 77.02978516 196.5402832 C74.54076601 196.54163233 72.05174713 196.54357493 69.56272888 196.54608154 C64.35893228 196.54902166 59.15520458 196.54477135 53.95141602 196.53540039 C47.30643247 196.52401259 40.66161064 196.53056829 34.01663303 196.54254532 C28.88029275 196.54979905 23.74399032 196.54745978 18.60764885 196.54228973 C16.15861936 196.54096264 13.70958636 196.54256773 11.26056099 196.54724884 C7.82750576 196.55237135 4.39470629 196.54452363 0.96166992 196.53344727 C-0.03453873 196.53749573 -1.03074738 196.54154419 -2.05714417 196.54571533 C-16.66461821 196.45912595 -29.9328183 193.55844504 -40.85302734 183.2512207 C-50.93270306 171.84111799 -52.74438138 158.75102324 -52.76025391 144.12963867 C-52.76521881 143.02783768 -52.77018372 141.92603668 -52.77529907 140.79084778 C-52.78986326 137.15784064 -52.79671367 133.5248772 -52.80224609 129.8918457 C-52.80800291 127.35466512 -52.81376057 124.81748454 -52.81951904 122.28030396 C-52.82867414 117.6411811 -52.8349806 113.00207122 -52.83801579 108.36294162 C-52.84248755 101.5683932 -52.86000294 94.77404683 -52.88901639 87.97955978 C-52.91338093 82.06518196 -52.92096704 76.15085352 -52.92269135 70.23642349 C-52.92570359 67.7351789 -52.93368339 65.23393485 -52.94687653 62.73272324 C-53.12307402 26.75642289 -53.12307402 26.75642289 -40.59912109 12.5246582 C-29.24903673 2.10367367 -14.80686879 -0.03612775 0 0 Z " fill="#E05071" transform="translate(53.59912109375,0.725341796875)"/>
<path d="M0 0 C1.65357765 -0.0076664 1.65357765 -0.0076664 3.34056091 -0.01548767 C6.95186938 -0.02928455 10.56298487 -0.0284344 14.17431641 -0.02612305 C16.70578074 -0.03001531 19.23724442 -0.03435107 21.76870728 -0.03910828 C27.06246328 -0.04654915 32.35614968 -0.04643468 37.64990234 -0.04101562 C43.73648243 -0.03498001 49.8228311 -0.04728777 55.90937173 -0.06858569 C61.80455746 -0.08844209 67.69965371 -0.09136179 73.59486771 -0.08785057 C76.0849423 -0.0883612 78.57502081 -0.09355004 81.06507492 -0.10366249 C117.473704 -0.2333965 117.473704 -0.2333965 131.27587891 12.5871582 C141.25293886 23.42348648 143.55222951 36.34363903 143.54614258 50.53735352 C143.54950119 51.6633345 143.5528598 52.78931549 143.55632019 53.94941711 C143.56580926 57.66721708 143.56777236 61.38497189 143.56884766 65.1027832 C143.57206193 67.6934206 143.57542613 70.28405781 143.57893372 72.87469482 C143.58492007 78.30505878 143.58681704 83.73540489 143.58618164 89.16577148 C143.58558169 95.42209588 143.5961203 101.67833382 143.6119253 107.93463635 C143.62663415 113.97450702 143.63016812 120.01433116 143.62957191 126.05422211 C143.63074907 128.6137604 143.63515598 131.17329939 143.64290428 133.73282623 C143.65274606 137.32008448 143.64980935 140.90712266 143.64379883 144.49438477 C143.64941833 145.54304214 143.65503784 146.59169952 143.66082764 147.6721344 C143.60432916 161.00082332 140.41580737 173.98277181 131.33837891 184.2121582 C119.89493057 194.34411021 105.71266995 196.59324016 90.96948242 196.53344727 C89.88499817 196.5369519 88.80051392 196.54045654 87.6831665 196.54406738 C84.13197243 196.55280167 80.58098093 196.54706454 77.02978516 196.5402832 C74.54076601 196.54163233 72.05174713 196.54357493 69.56272888 196.54608154 C64.35893228 196.54902166 59.15520458 196.54477135 53.95141602 196.53540039 C47.30643247 196.52401259 40.66161064 196.53056829 34.01663303 196.54254532 C28.88029275 196.54979905 23.74399032 196.54745978 18.60764885 196.54228973 C16.15861936 196.54096264 13.70958636 196.54256773 11.26056099 196.54724884 C7.82750576 196.55237135 4.39470629 196.54452363 0.96166992 196.53344727 C-0.03453873 196.53749573 -1.03074738 196.54154419 -2.05714417 196.54571533 C-16.66461821 196.45912595 -29.9328183 193.55844504 -40.85302734 183.2512207 C-50.93270306 171.84111799 -52.74438138 158.75102324 -52.76025391 144.12963867 C-52.76521881 143.02783768 -52.77018372 141.92603668 -52.77529907 140.79084778 C-52.78986326 137.15784064 -52.79671367 133.5248772 -52.80224609 129.8918457 C-52.80800291 127.35466512 -52.81376057 124.81748454 -52.81951904 122.28030396 C-52.82867414 117.6411811 -52.8349806 113.00207122 -52.83801579 108.36294162 C-52.84248755 101.5683932 -52.86000294 94.77404683 -52.88901639 87.97955978 C-52.91338093 82.06518196 -52.92096704 76.15085352 -52.92269135 70.23642349 C-52.92570359 67.7351789 -52.93368339 65.23393485 -52.94687653 62.73272324 C-53.12307402 26.75642289 -53.12307402 26.75642289 -40.59912109 12.5246582 C-29.24903673 2.10367367 -14.80686879 -0.03612775 0 0 Z M2.40087891 28.2746582 C1.56943359 28.52344727 0.73798828 28.77223633 -0.11865234 29.02856445 C-9.84026548 32.45679941 -17.47149358 39.32052217 -22.31427002 48.42724609 C-26.5940641 57.91187645 -27.03224606 67.96840937 -26.92724609 78.2121582 C-26.92537292 79.49469482 -26.92349976 80.77723145 -26.92156982 82.09863281 C-26.91701286 84.79122933 -26.90277152 87.48351908 -26.88037109 90.17602539 C-26.85209334 93.58786889 -26.84115283 96.9994731 -26.836689 100.41142273 C-26.83147808 103.7200365 -26.81695069 107.02857216 -26.80224609 110.3371582 C-26.79799622 111.54170654 -26.79374634 112.74625488 -26.78936768 113.98730469 C-26.64082971 131.89531555 -25.68217945 146.07126003 -13.34912109 159.7746582 C-11.73018325 161.49158866 -11.73018325 161.49158866 -9.59912109 161.2746582 C-9.26912109 162.2646582 -8.93912109 163.2546582 -8.59912109 164.2746582 C-5.75984891 165.72159197 -5.75984891 165.72159197 -2.34912109 166.8996582 C-0.63982422 167.53774414 -0.63982422 167.53774414 1.10400391 168.1887207 C6.11511584 169.83930023 10.52866751 170.40195109 15.80493164 170.41992188 C17.08073593 170.42630173 18.35654022 170.43268158 19.67100525 170.43925476 C21.05882733 170.44078483 22.44664992 170.44189804 23.83447266 170.44262695 C25.27352429 170.44584551 26.71257561 170.44921002 28.15162659 170.45271301 C31.17018388 170.4586952 34.18871259 170.46055414 37.20727539 170.45996094 C41.03629655 170.45986003 44.86512929 170.473442 48.6941061 170.49073315 C51.6705048 170.50197536 54.64685993 170.50387635 57.62327766 170.50335121 C59.03237614 170.50451573 60.44147633 170.5088493 61.85055351 170.51668358 C77.90030325 170.59748004 93.33088708 169.96328714 105.77587891 158.6496582 C117.15142487 146.1602567 117.71768429 130.74280895 117.66650391 114.64575195 C117.6678568 113.28060335 117.66980248 111.91545522 117.67230225 110.55030823 C117.67522322 107.71236508 117.6710542 104.87454924 117.66162109 102.03662109 C117.65021733 98.43405002 117.65681119 94.83177683 117.66876602 91.22921658 C117.67605796 88.41760591 117.6736636 85.6060637 117.66851044 82.79445076 C117.66656431 80.83166938 117.67254127 78.86888512 117.67877197 76.90611267 C117.60369253 62.39545075 115.93145903 49.02848143 105.77587891 37.8996582 C92.79179691 26.0959473 76.49749039 25.95297146 59.84228516 26.0090332 C58.39932694 26.00768095 56.95636916 26.00573581 55.51341248 26.00323486 C52.51923192 26.00031648 49.52517218 26.00447812 46.53100586 26.01391602 C42.70938182 26.0253816 38.88803663 26.01868573 35.06642246 26.00677109 C32.09889137 25.99952463 29.13142587 26.00185193 26.16389275 26.00702667 C24.754597 26.00835172 23.34529512 26.00675602 21.93600655 26.00206757 C19.96799979 25.99694827 17.99997181 26.00614327 16.03198242 26.01586914 C14.91727066 26.01746033 13.8025589 26.01905151 12.65406799 26.02069092 C9.02105035 26.30431035 5.86720723 27.17272673 2.40087891 28.2746582 Z " fill="#C55A88" transform="translate(53.59912109375,0.725341796875)"/>
<path d="M0 0 C1.27610641 -0.00637985 2.55221283 -0.0127597 3.86698914 -0.01933289 C5.2756649 -0.02086339 6.68434117 -0.02197637 8.09301758 -0.02270508 C9.53778618 -0.02591972 10.98255446 -0.02928395 12.42732239 -0.03279114 C15.46978506 -0.03879654 18.51221931 -0.0406301 21.5546875 -0.04003906 C25.41521164 -0.0399385 29.27554743 -0.05347305 33.13602734 -0.07081127 C36.12959084 -0.08205891 39.12311105 -0.08395425 42.1166935 -0.08342934 C43.53695627 -0.08459487 44.95722071 -0.08893451 46.37746239 -0.0967617 C62.46798195 -0.1769863 77.94485433 0.42463231 90.42504883 11.77026367 C101.57948314 23.99366461 102.36574856 38.8670077 102.31567383 54.64135742 C102.31702644 56.00553964 102.31897188 57.36972138 102.32147217 58.73390198 C102.32439648 61.57362521 102.32021438 64.4132214 102.31079102 67.25292969 C102.29940904 70.85431025 102.3059652 74.45539213 102.31793594 78.05676174 C102.32523746 80.86841494 102.32282888 83.67999985 102.31768036 86.49165535 C102.31573689 88.45272648 102.32170672 90.41380049 102.32794189 92.37486267 C102.25114908 107.25506594 100.8386427 121.0870054 90.42504883 132.52026367 C77.4603639 144.30634088 61.19444537 144.46712411 44.56176758 144.41088867 C43.12360061 144.41224121 41.6854341 144.41418659 40.24726868 144.41668701 C37.26148034 144.41960592 34.27581312 144.41544327 31.29003906 144.40600586 C27.48654747 144.39456095 23.68333672 144.40122302 19.87985516 144.41315079 C16.92082134 144.42041329 13.96185305 144.41806229 11.00281715 144.4128952 C9.60075661 144.41157352 8.19868987 144.41315367 6.79663658 144.41785431 C-2.94691132 144.44338938 -11.73641853 144.21729523 -20.51245117 139.52026367 C-21.35936523 139.07424805 -22.2062793 138.62823242 -23.07885742 138.16870117 C-24.00504883 137.66209961 -24.00504883 137.66209961 -24.94995117 137.14526367 C-24.94995117 136.48526367 -24.94995117 135.82526367 -24.94995117 135.14526367 C-25.53776367 134.88616211 -26.12557617 134.62706055 -26.73120117 134.36010742 C-34.52497681 130.09274083 -37.52109866 122.22838036 -39.94995117 114.14526367 C-40.27995117 113.15526367 -40.60995117 112.16526367 -40.94995117 111.14526367 C-41.99553313 102.19704657 -42.12132763 93.20629483 -42.15307617 84.20776367 C-42.15877625 82.92522705 -42.16447632 81.64269043 -42.17034912 80.32128906 C-42.18074469 77.62882096 -42.18666299 74.93638172 -42.19018555 72.24389648 C-42.19567856 68.83192345 -42.21977247 65.42034764 -42.2481575 62.00849915 C-42.2714849 58.6999302 -42.27324383 55.39141035 -42.27807617 52.08276367 C-42.29042297 50.87821533 -42.30276978 49.67366699 -42.31549072 48.43261719 C-42.27858691 34.18923162 -39.45960684 22.03615963 -29.69995117 11.33276367 C-23.75209112 5.77793402 -16.59783866 2.89884671 -8.66479492 1.50463867 C-1.50938971 0.00510045 -1.50938971 0.00510045 0 0 Z M-21.94995117 22.14526367 C-29.39455856 31.29474298 -29.26375797 41.41645995 -29.25073242 52.72338867 C-29.25462873 54.14052453 -29.25896529 55.55765924 -29.26371765 56.97479248 C-29.27114896 59.93676547 -29.27091207 62.89861922 -29.265625 65.8605957 C-29.25984761 69.6237032 -29.2767341 73.38631573 -29.29996967 77.14934158 C-29.31483175 80.07506073 -29.31556173 83.00066426 -29.31245995 85.92641449 C-29.31296736 87.31204962 -29.31809378 88.69769225 -29.32827187 90.0832901 C-29.40392057 101.8244801 -28.85295945 114.77040419 -20.40698242 123.79370117 C-10.98083608 132.03404233 3.16239285 131.60578517 14.99536133 131.57885742 C16.38150279 131.58343803 17.767642 131.58874903 19.15377808 131.59474182 C22.03287087 131.60358637 24.91168496 131.60134792 27.79077148 131.59130859 C31.44626083 131.57979155 35.10078795 131.60011549 38.7561512 131.62922573 C41.60983183 131.64772421 44.46328714 131.6472691 47.31701279 131.64158821 C49.30863326 131.64136436 51.30023312 131.6581109 53.29177856 131.67539978 C63.48852317 131.59796089 74.02937779 130.25479753 81.65551758 122.83276367 C89.71808464 113.07638 89.36471756 100.31591669 89.35083008 88.30151367 C89.35472798 86.88244504 89.35906486 85.46337756 89.36381531 84.04431152 C89.37123033 81.08589882 89.37102015 78.12760558 89.36572266 75.16918945 C89.35992412 71.40370172 89.37689095 67.63870525 89.40006733 63.87329865 C89.41489201 60.94766448 89.41566476 58.02214641 89.4125576 55.09648132 C89.4130661 53.70919317 89.41821385 52.32189768 89.42836952 50.93464661 C89.50366956 39.21654556 88.62286467 28.83418989 80.05004883 20.14526367 C70.72642705 12.55896272 60.20466492 12.83194921 48.74536133 12.84448242 C47.25617353 12.84058755 45.76698682 12.83625127 44.27780151 12.83149719 C41.16620269 12.82406511 38.05471739 12.82430412 34.94311523 12.82958984 C30.98028242 12.83537841 27.01791792 12.81845391 23.05516243 12.79524517 C19.98197775 12.78042334 16.90890365 12.77964757 13.83568954 12.7827549 C12.37583362 12.78224585 10.91597082 12.7770875 9.45615005 12.76694298 C-2.42274621 12.69451631 -13.09779385 13.41139799 -21.94995117 22.14526367 Z " fill="#FEFCFC" transform="translate(68.949951171875,26.854736328125)"/>
<path d="M0 0 C7.88942882 5.63721012 13.74929787 13.35891902 16.125 22.83203125 C17.84611362 33.43532052 16.75267675 42.8124529 11.01953125 52 C4.60873157 60.78734327 -3.60473539 66.72188298 -14.4375 68.52734375 C-25.92125188 69.37197614 -34.83373653 67.49845669 -44.11328125 60.53515625 C-51.86923005 53.8350593 -56.69167662 45.55333902 -57.78125 35.2890625 C-58.1138182 23.49674847 -55.21744348 14.47878451 -47.4375 5.52734375 C-34.15757754 -6.95484485 -15.87303587 -9.58995917 0 0 Z " fill="#FEFAFB" transform="translate(119.4375,67.47265625)"/>
<path d="M0 0 C5.55419366 3.8109066 10.09397894 9.01088622 12.140625 15.46875 C13.30695201 23.46115933 11.79047355 29.88053084 7.140625 36.46875 C2.35206143 41.77845088 -2.16164983 45.01273045 -9.39453125 45.71484375 C-15.78154512 46.00476322 -20.70646331 45.40427319 -25.859375 41.46875 C-32.49016305 35.2619555 -35.80716904 30.24098346 -36.234375 21.09375 C-36.06149574 14.36965668 -34.40452533 10.14210753 -29.765625 5.26953125 C-21.0360648 -2.83441047 -11.14510397 -5.61264228 0 0 Z " fill="#EF4D5E" transform="translate(110.859375,77.53125)"/>
<path d="M0 0 C3.34265205 1.20706879 3.94704566 1.92056849 6 5 C6.50418234 9.63847757 5.77954397 12.25830619 3 16 C-0.13871188 17.56935594 -2.53855822 17.35201103 -6 17 C-9.69186542 14.40783917 -10.82883761 12.95850936 -11.625 8.5 C-10.43770475 1.85114658 -6.64836107 -0.99018144 0 0 Z " fill="#FDF8FB" transform="translate(140,52)"/>
<path d="M0 0 C0.66 0.33 1.32 0.66 2 1 C-2.29 5.29 -6.58 9.58 -11 14 C-11 10.30159372 -10.17133056 9.68584567 -7.75 7 C-7.14671875 6.319375 -6.5434375 5.63875 -5.921875 4.9375 C-4.06233388 3.06284066 -2.15205789 1.52358081 0 0 Z " fill="#5E5BC4" transform="translate(20,8)"/>
</svg>
